<?xml version="1.0" encoding="utf-8"?><svg xmlns="http://www.w3.org/2000/svg" xmlns:xlink="http://www.w3.org/1999/xlink"><symbol viewBox="0 0 510 510" id="cart" xmlns="http://www.w3.org/2000/svg"><path d="M153 408c-28.05 0-51 22.95-51 51s22.95 51 51 51 51-22.95 51-51-22.95-51-51-51zM0 0v51h51l91.8 193.8-35.7 61.2c-2.55 7.65-5.1 17.85-5.1 25.5 0 28.05 22.95 51 51 51h306v-51H163.2c-2.55 0-5.1-2.55-5.1-5.1v-2.551l22.95-43.35h188.7c20.4 0 35.7-10.2 43.35-25.5L504.9 89.25c5.1-5.1 5.1-7.65 5.1-12.75 0-15.3-10.2-25.5-25.5-25.5H107.1L84.15 0H0zm408 408c-28.05 0-51 22.95-51 51s22.95 51 51 51 51-22.95 51-51-22.95-51-51-51z"/></symbol><symbol viewBox="0 0 512 512" id="close" xmlns="http://www.w3.org/2000/svg"><path d="M505.943 6.058c-8.077-8.077-21.172-8.077-29.249 0L6.058 476.693c-8.077 8.077-8.077 21.172 0 29.249A20.612 20.612 0 0 0 20.683 512a20.614 20.614 0 0 0 14.625-6.059L505.943 35.306c8.076-8.076 8.076-21.171 0-29.248z"/><path d="M505.942 476.694L35.306 6.059c-8.076-8.077-21.172-8.077-29.248 0-8.077 8.076-8.077 21.171 0 29.248l470.636 470.636a20.616 20.616 0 0 0 14.625 6.058 20.615 20.615 0 0 0 14.624-6.057c8.075-8.078 8.075-21.173-.001-29.25z"/></symbol><symbol viewBox="0 0 511.626 511.626" id="comments" xmlns="http://www.w3.org/2000/svg"><path d="M477.371 127.44c-22.843-28.074-53.871-50.249-93.076-66.523-39.204-16.272-82.035-24.41-128.478-24.41-34.643 0-67.762 4.805-99.357 14.417-31.595 9.611-58.812 22.602-81.653 38.97-22.845 16.37-41.018 35.832-54.534 58.385C6.757 170.833 0 194.484 0 219.228c0 28.549 8.61 55.3 25.837 80.234 17.227 24.931 40.778 45.871 70.664 62.811-2.096 7.611-4.57 14.846-7.426 21.693-2.855 6.852-5.424 12.474-7.708 16.851-2.286 4.377-5.376 9.233-9.281 14.562-3.899 5.328-6.849 9.089-8.848 11.275-1.997 2.19-5.28 5.812-9.851 10.849-4.565 5.048-7.517 8.329-8.848 9.855-.193.089-.953.952-2.285 2.567-1.331 1.615-1.999 2.423-1.999 2.423l-1.713 2.566c-.953 1.431-1.381 2.334-1.287 2.707.096.373-.094 1.331-.57 2.851-.477 1.526-.428 2.669.142 3.433v.284c.765 3.429 2.43 6.187 4.998 8.277 2.568 2.092 5.474 2.95 8.708 2.563 12.375-1.522 23.223-3.606 32.548-6.276 49.87-12.758 93.649-35.782 131.334-69.097 14.272 1.522 28.072 2.286 41.396 2.286 46.442 0 89.271-8.138 128.479-24.417 39.208-16.272 70.233-38.448 93.072-66.517 22.843-28.062 34.263-58.663 34.263-91.781.001-33.119-11.418-63.718-34.254-91.787z"/></symbol><symbol viewBox="0 0 167.657 167.657" id="facebook" xmlns="http://www.w3.org/2000/svg"><path d="M83.829.349C37.532.349 0 37.881 0 84.178c0 41.523 30.222 75.911 69.848 82.57v-65.081H49.626v-23.42h20.222V60.978c0-20.037 12.238-30.956 30.115-30.956 8.562 0 15.92.638 18.056.919v20.944l-12.399.006c-9.72 0-11.594 4.618-11.594 11.397v14.947h23.193l-3.025 23.42H94.026v65.653c41.476-5.048 73.631-40.312 73.631-83.154 0-46.273-37.532-83.805-83.828-83.805z"/></symbol><symbol viewBox="0 0 27.02 27.02" id="home" xmlns="http://www.w3.org/2000/svg"><path d="M3.674 24.876s-.024.604.566.604l6.811-.008.01-5.581s-.096-.92.797-.92h2.826c1.056 0 .991.92.991.92l-.012 5.563h6.667c.749 0 .715-.752.715-.752V14.413l-9.396-8.358-9.975 8.358v10.463z"/><path d="M0 13.635s.847 1.561 2.694 0l11.038-9.338 10.349 9.28c2.138 1.542 2.939 0 2.939 0L13.732 1.54 0 13.635zm23.83-9.36h-2.662l.011 3.228 2.651 2.249z"/></symbol><symbol viewBox="0 0 49.652 49.652" id="instagram" xmlns="http://www.w3.org/2000/svg"><path d="M24.825 29.796a4.978 4.978 0 0 0 4.972-4.97 4.954 4.954 0 0 0-.94-2.897 4.964 4.964 0 0 0-4.029-2.073c-1.659 0-3.126.82-4.031 2.072a4.947 4.947 0 0 0-.94 2.897 4.973 4.973 0 0 0 4.968 4.971zm10.853-11.05V13.96l-.623.002-4.164.013.016 4.787z"/><path d="M24.826 0C11.137 0 0 11.137 0 24.826c0 13.688 11.137 24.826 24.826 24.826 13.688 0 24.826-11.138 24.826-24.826C49.652 11.137 38.516 0 24.826 0zm14.119 21.929v11.56a5.463 5.463 0 0 1-5.457 5.458H16.164a5.462 5.462 0 0 1-5.457-5.458V16.165a5.462 5.462 0 0 1 5.457-5.457h17.323a5.463 5.463 0 0 1 5.458 5.457v5.764z"/><path d="M32.549 24.826c0 4.257-3.464 7.723-7.723 7.723s-7.722-3.466-7.722-7.723a7.67 7.67 0 0 1 .568-2.897h-4.215v11.56a2.706 2.706 0 0 0 2.706 2.704h17.323a2.707 2.707 0 0 0 2.706-2.704v-11.56h-4.217c.367.894.574 1.873.574 2.897z"/></symbol><symbol viewBox="0 0 51.997 51.997" id="likes" xmlns="http://www.w3.org/2000/svg"><path d="M51.911 16.242c-.759-8.354-6.672-14.415-14.072-14.415-4.93 0-9.444 2.653-11.984 6.905-2.517-4.307-6.846-6.906-11.697-6.906C6.759 1.826.845 7.887.087 16.241c-.06.369-.306 2.311.442 5.478 1.078 4.568 3.568 8.723 7.199 12.013l18.115 16.439 18.426-16.438c3.631-3.291 6.121-7.445 7.199-12.014.748-3.166.502-5.108.443-5.477z"/></symbol><symbol viewBox="0 0 350 350" id="login" xmlns="http://www.w3.org/2000/svg"><path d="M175 171.173c38.914 0 70.463-38.318 70.463-85.586C245.463 38.318 235.105 0 175 0s-70.465 38.318-70.465 85.587c0 47.268 31.549 85.586 70.465 85.586zM41.909 301.853c-.012-2.882-.024-.812 0 0zm266.176 2.251c.038-.789.013-5.474 0 0z"/><path d="M307.935 298.397c-1.305-82.342-12.059-105.805-94.352-120.657 0 0-11.584 14.761-38.584 14.761s-38.586-14.761-38.586-14.761C55.018 192.43 43.61 215.545 42.11 295.722c-.123 6.547-.18 6.891-.202 6.131.005 1.424.011 4.058.011 8.651 0 0 19.592 39.496 133.08 39.496 113.486 0 133.08-39.496 133.08-39.496 0-2.951.002-5.003.005-6.399-.022.47-.066-.441-.149-5.708z"/></symbol><symbol viewBox="0 0 14 14" id="mail" xmlns="http://www.w3.org/2000/svg"><path d="M7 9L5.268 7.484.316 11.729c.18.167.423.271.691.271h11.986c.267 0 .509-.104.688-.271L8.732 7.484 7 9z"/><path d="M13.684 2.271A1.007 1.007 0 0 0 12.993 2H1.007c-.267 0-.509.104-.689.273L7 8l6.684-5.729zM0 2.878v8.308l4.833-4.107zm9.167 4.201L14 11.186V2.875z"/></symbol><symbol viewBox="0 0 97.75 97.75" id="odnoklassniki" xmlns="http://www.w3.org/2000/svg"><path d="M48.921 40.507a8.367 8.367 0 0 0 8.367-8.443c-.017-4.679-3.742-8.402-8.411-8.406a8.398 8.398 0 0 0-8.432 8.508c.035 4.66 3.794 8.358 8.476 8.341z"/><path d="M48.875 0C21.882 0 0 21.883 0 48.875S21.882 97.75 48.875 97.75 97.75 75.867 97.75 48.875 75.868 0 48.875 0zm.07 14.863c9.52.026 17.161 7.813 17.112 17.438-.048 9.403-7.814 17.024-17.318 16.992-9.407-.032-17.122-7.831-17.066-17.253.053-9.525 7.772-17.203 17.272-17.177zm19.282 41.194c-2.105 2.161-4.639 3.725-7.453 4.816-2.66 1.031-5.575 1.55-8.461 1.896.437.474.642.707.914.979 3.916 3.937 7.851 7.854 11.754 11.802 1.33 1.346 1.607 3.014.875 4.577-.799 1.71-2.592 2.834-4.351 2.713-1.114-.077-1.983-.63-2.754-1.407-2.956-2.974-5.968-5.895-8.862-8.925-.845-.882-1.249-.714-1.994.052a589.856 589.856 0 0 1-9.034 9.072c-1.365 1.346-2.989 1.59-4.573.82-1.683-.814-2.753-2.533-2.671-4.262.058-1.166.632-2.06 1.434-2.858 3.877-3.869 7.742-7.75 11.608-11.628.257-.257.495-.53.868-.93-5.273-.551-10.028-1.849-14.099-5.032-.506-.396-1.027-.778-1.487-1.222-1.783-1.711-1.962-3.672-.553-5.69 1.207-1.728 3.231-2.19 5.336-1.197.408.191.796.433 1.168.689 7.586 5.213 18.008 5.356 25.624.233.754-.576 1.561-1.05 2.496-1.289 1.816-.468 3.512.201 4.486 1.791 1.115 1.817 1.102 3.589-.271 5z"/></symbol><symbol viewBox="0 0 30.239 30.239" id="search" xmlns="http://www.w3.org/2000/svg"><path d="M20.194 3.46c-4.613-4.613-12.121-4.613-16.734 0-4.612 4.614-4.612 12.121 0 16.735 4.108 4.107 10.506 4.547 15.116 1.34.097.459.319.897.676 1.254l6.718 6.718a2.498 2.498 0 0 0 3.535 0 2.496 2.496 0 0 0 0-3.535l-6.718-6.72a2.5 2.5 0 0 0-1.253-.674c3.209-4.611 2.769-11.008-1.34-15.118zm-2.121 14.614c-3.444 3.444-9.049 3.444-12.492 0-3.442-3.444-3.442-9.048 0-12.492 3.443-3.443 9.048-3.443 12.492 0 3.444 3.444 3.444 9.048 0 12.492z"/></symbol><symbol viewBox="0 0 35 35" id="view-grid" xmlns="http://www.w3.org/2000/svg"><path d="M0 0h16v16H0zm19 0h16v16H19zM0 19h16v16H0zm19 0h16v16H19z"/></symbol><symbol viewBox="0 0 472.615 472.615" id="view-rows" xmlns="http://www.w3.org/2000/svg"><path d="M250.939 0h221.676v19.269H250.939zm0 453.317h221.676v19.269H250.939zM0 0h222.513v222.316H0zm0 250.299h222.513v222.316H0zm250.939 89.708h221.676v19.269H250.939zm0-113.349h221.676v19.269H250.939zm0-113.319h221.676v19.269H250.939z"/></symbol><symbol viewBox="0 0 97.75 97.75" id="vk" xmlns="http://www.w3.org/2000/svg"><path d="M48.875 0C21.883 0 0 21.882 0 48.875S21.883 97.75 48.875 97.75 97.75 75.868 97.75 48.875 75.867 0 48.875 0zm24.792 54.161c2.278 2.225 4.688 4.319 6.733 6.774.906 1.086 1.76 2.209 2.41 3.472.928 1.801.09 3.776-1.522 3.883l-10.013-.002c-2.586.214-4.644-.829-6.379-2.597-1.385-1.409-2.67-2.914-4.004-4.371-.545-.598-1.119-1.161-1.803-1.604-1.365-.888-2.551-.616-3.333.81-.797 1.451-.979 3.059-1.055 4.674-.109 2.361-.821 2.978-3.19 3.089-5.062.237-9.865-.531-14.329-3.083-3.938-2.251-6.986-5.428-9.642-9.025-5.172-7.012-9.133-14.708-12.692-22.625-.801-1.783-.215-2.737 1.752-2.774 3.268-.063 6.536-.055 9.804-.003 1.33.021 2.21.782 2.721 2.037 1.766 4.345 3.931 8.479 6.644 12.313.723 1.021 1.461 2.039 2.512 2.76 1.16.796 2.044.533 2.591-.762.35-.823.501-1.703.577-2.585.26-3.021.291-6.041-.159-9.05-.28-1.883-1.339-3.099-3.216-3.455-.956-.181-.816-.535-.351-1.081.807-.944 1.563-1.528 3.074-1.528l11.313-.002c1.783.35 2.183 1.15 2.425 2.946l.01 12.572c-.021.695.349 2.755 1.597 3.21 1 .33 1.66-.472 2.258-1.105 2.713-2.879 4.646-6.277 6.377-9.794.764-1.551 1.423-3.156 2.063-4.764.476-1.189 1.216-1.774 2.558-1.754l10.894.013c.321 0 .647.003.965.058 1.836.314 2.339 1.104 1.771 2.895-.894 2.814-2.631 5.158-4.329 7.508-1.82 2.516-3.761 4.944-5.563 7.471-1.656 2.31-1.525 3.473.531 5.479z"/></symbol><symbol viewBox="0 0 275.836 275.836" id="write" xmlns="http://www.w3.org/2000/svg"><path d="M191.344 20.922l-95.155 95.155a5.99 5.99 0 0 0-1.565 2.734l-8.167 31.454a6.003 6.003 0 0 0 7.315 7.316l31.454-8.168a6.003 6.003 0 0 0 2.734-1.565l95.153-95.153.005-.004.004-.005 19.156-19.156a5.998 5.998 0 0 0 .001-8.484L218.994 1.758a5.998 5.998 0 0 0-8.485 0l-19.155 19.155-.005.004-.005.005zm-70.713 117.286l-19.993 5.192 5.191-19.993 89.762-89.762 14.801 14.802-89.761 89.761zm94.12-123.723l14.801 14.802-10.675 10.675-14.801-14.802 10.675-10.675z"/><path d="M238.037 65.022a6 6 0 0 0-6 6v192.813H43.799V34.417h111.063a6 6 0 0 0 0-12H37.799a6 6 0 0 0-6 6v241.419a6 6 0 0 0 6 6h200.238a6 6 0 0 0 6-6V71.022a6 6 0 0 0-6-6z"/></symbol><symbol viewBox="0 0 334.623 334.623" id="youtube" xmlns="http://www.w3.org/2000/svg"><path d="M175.329 287.017c-.007 0 0 0 0 0-38.053 0-79.481-1.202-123.125-3.554-25.784-1.414-45.785-21.292-48.632-48.349-4.762-45.2-4.762-90.83 0-135.625 2.841-26.832 22.815-46.71 48.574-48.33 75.271-4.737 152.721-4.737 230.312 0 26.061 1.581 45.586 20.99 48.6 48.304 4.749 43.246 4.756 88.87.006 135.632-2.744 27.038-22.25 46.472-48.535 48.356-33.079 2.364-69.147 3.566-107.2 3.566zm-8.901-226.565c-37.931 0-76.113 1.195-113.485 3.541-19.685 1.234-34.39 16.048-36.594 36.851-4.666 43.895-4.666 88.613 0 132.926 2.204 20.971 16.89 35.778 36.543 36.858 43.413 2.339 84.609 3.535 122.425 3.535 37.751 0 73.51-1.189 106.287-3.528 19.833-1.427 34.57-16.228 36.659-36.839 4.666-45.862 4.666-90.58.006-132.926-2.294-20.868-17.005-35.688-36.594-36.877-38.53-2.352-77.31-3.541-115.247-3.541zm-31.852 61.331v88.208l84.706-43.805-84.706-44.403z"/></symbol></svg>